<svg xmlns="http://www.w3.org/2000/svg" viewBox="0 0 1280 400" role="img" aria-labelledby="title desc">
  <title id="title">OrganizeContacts brand banner</title>
  <desc id="desc">OrganizeContacts wordmark with overlapping contact-card icon.</desc>
  <defs>
    <linearGradient id="card" x1="102" y1="92" x2="294" y2="230" gradientUnits="userSpaceOnUse">
      <stop offset="0" stop-color="#CBA6F7"/>
      <stop offset="1" stop-color="#89B4FA"/>
    </linearGradient>
  </defs>
  <rect width="1280" height="400" rx="36" fill="#181825"/>
  <rect x="1" y="1" width="1278" height="398" rx="36" fill="none" stroke="#313244" stroke-width="2"/>

  <g transform="translate(64 56)">
    <rect x="0" y="0" width="288" height="288" rx="66" fill="#11111B"/>
    <rect x="0" y="0" width="288" height="288" rx="66" fill="none" stroke="#313244" stroke-width="8"/>
    <rect x="82" y="112" width="148" height="104" rx="20" fill="#45475A" opacity="0.64"/>
    <rect x="54" y="78" width="184" height="128" rx="22" fill="url(#card)"/>
    <circle cx="104" cy="132" r="22" fill="#11111B" opacity="0.78"/>
    <path d="M72 184c8-30 25-45 32-45s24 15 32 45c2 8-4 15-13 15H85c-9 0-15-7-13-15Z" fill="#11111B" opacity="0.78"/>
    <rect x="154" y="107" width="52" height="10" rx="5" fill="#11111B" opacity="0.68"/>
    <rect x="154" y="138" width="68" height="8" rx="4" fill="#11111B" opacity="0.48"/>
    <rect x="154" y="164" width="56" height="8" rx="4" fill="#11111B" opacity="0.48"/>
    <circle cx="220" cy="88" r="26" fill="#A6E3A1"/>
    <path d="M207 88l10 11 18-22" fill="none" stroke="#11111B" stroke-width="8" stroke-linecap="round" stroke-linejoin="round"/>
  </g>

  <text x="408" y="174" fill="#CDD6F4" font-family="Segoe UI, Inter, Arial, sans-serif" font-size="66" font-weight="700">Organize</text>
  <text x="710" y="174" fill="#CBA6F7" font-family="Segoe UI, Inter, Arial, sans-serif" font-size="66" font-weight="700">Contacts</text>
  <rect x="410" y="210" width="560" height="2" rx="1" fill="#313244"/>
  <text x="408" y="258" fill="#BAC2DE" font-family="Segoe UI, Inter, Arial, sans-serif" font-size="24" font-weight="500">Contact import, cleanup, dedupe, and export</text>
  <text x="408" y="300" fill="#A6ADC8" font-family="Segoe UI, Inter, Arial, sans-serif" font-size="18">vCard  •  CSV  •  LDIF  •  jCard  •  CardDAV  •  restore history</text>
</svg>
